<?xml version="1.0" encoding="UTF-8"?>
<svg id="Layer_2" data-name="Layer 2" xmlns="http://www.w3.org/2000/svg" width="24" height="24" xmlns:xlink="http://www.w3.org/1999/xlink" viewBox="0 0 24 24">
  <defs>
    <clipPath id="clippath">
      <rect width="24" height="24" fill="none"/>
    </clipPath>
  </defs>
  <g id="Layer_1-2" data-name="Layer 1">
    <g clip-path="url(#clippath)">
      <g>
        <path d="m23.397,8.836c.517-.852.699-1.832.555-2.996-.189-1.534-1.415-2.938-2.851-3.265-1.438-.327-2.757.03-3.806,1.038-.238.229-.465.475-.696.729-.996-.366-1.924-.599-2.818-.694-.596-.063-1.195-.097-1.783-.098-.585.002-1.184.035-1.779.098-.886.094-1.806.324-2.817.695-.227-.249-.455-.497-.697-.73-1.049-1.007-2.365-1.366-3.807-1.038C1.462,2.903.237,4.307.048,5.84c-.144,1.165.038,2.144.555,2.997.38.622.896,1.099,1.36,1.483l-.237.65c-.119.324-.239.648-.355.972-.251.7-.606,1.401-1.118,2.202C-.092,14.682,0,15.143.499,15.497c.028.022.07.049.111.073v.005c.071,1.096.538,2.107,1.388,3.006.584.619,1.247,1.134,1.973,1.532l1.24.666c.023.013.097.052.122.063l.75.307.415.122c.31.092.608.181.912.254.055.013.11.019.165.019.319,0,.608-.218.686-.541.091-.38-.143-.76-.522-.851-.278-.066-.553-.149-.837-.233l-1.006-.374-1.246-.669c-.595-.327-1.142-.752-1.625-1.264-.314-.332-.553-.672-.72-1.026.654.278,1.345.435,2.08.435.058,0,.117,0,.176-.003.39-.012.696-.337.685-.727-.012-.389-.297-.675-.727-.685-1.02.038-1.887-.274-2.688-.928l-.163-.134c.452-.748.786-1.432,1.033-2.124.115-.321.233-.641.35-.96l.268-.733c.003-.007.004-.013.007-.02,0,0,0,0,0,0,.011-.035,1.146-3.504,4.272-4.933,0,0,.001,0,.002,0,0,0,0,0,.001,0,.558-.218,1.084-.383,1.592-.506-.098.816-.065,1.566.113,2.273.127.503.299,1.033.688,1.501.14.168.341.256.543.256.159,0,.319-.053.45-.163.301-.249.342-.694.093-.994-.198-.239-.305-.551-.405-.947-.162-.64-.167-1.346-.023-2.154.453-.04.907-.074,1.347-.075.443.001.898.035,1.351.075.143.804.138,1.512-.024,2.155-.099.393-.206.705-.405.946-.249.3-.208.744.093.994.131.109.291.163.45.163.202,0,.403-.087.543-.256.392-.472.568-1.025.688-1.502.178-.708.21-1.459.112-2.273.503.122,1.02.283,1.558.493,3.031,1.384,4.208,4.656,4.301,4.923.006.017.011.034.017.051l.278.761c.114.309.228.618.339.927.243.683.572,1.359,1.032,2.123l-.159.133c-.805.657-1.669.979-2.691.931h-.021c-.381,0-.694.302-.706.685-.011.39.295.715.685.727.059.002.118.003.176.003.735,0,1.426-.157,2.08-.435-.167.354-.406.694-.72,1.027-.483.511-1.03.936-1.624,1.262l-.669.359-1.155.559-.424.125c-.286.085-.563.167-.842.234-.38.091-.613.472-.522.851.078.324.367.541.686.541.055,0,.11-.006.165-.019.304-.074.605-.163.915-.255l.487-.148.673-.28c.025-.01.099-.05.122-.063l1.241-.667c.725-.397,1.389-.913,1.972-1.53.835-.883,1.301-1.874,1.392-3.012.029-.017.059-.037.08-.051.526-.374.618-.835.273-1.37-.513-.804-.868-1.504-1.118-2.204-.112-.314-.228-.628-.344-.941l-.249-.681c.465-.386.983-.863,1.36-1.484Zm-20.842.117c-.279-.254-.548-.525-.746-.85-.35-.577-.465-1.241-.36-2.09.117-.941.907-1.866,1.763-2.061.986-.224,1.808-.002,2.516.679.12.116.235.249.352.372-1.82,1.146-2.928,2.797-3.524,3.95Zm20.148,5.379l.003.004s-.01.005-.015.007c.004-.004.007-.007.012-.011Zm-.512-6.229c-.198.325-.467.597-.747.851-.595-1.149-1.703-2.794-3.526-3.947.118-.125.231-.256.355-.376.708-.681,1.53-.903,2.515-.679.857.195,1.647,1.119,1.764,2.061.105.849-.01,1.513-.36,2.09Z" fill="#1a1a1a"/>
        <path d="m9.826,12.024c-.475-1.204-1.891-1.565-2.869-.743-.76.638-.945,1.836-.411,2.673.615.966,1.871,1.211,2.701.521.501-.417.741-.962.757-1.756-.035-.142-.074-.431-.178-.694Z" fill="#1a1a1a"/>
        <path d="m17.76,12.87c-.001-.566-.2-1.053-.592-1.458-.786-.812-2.05-.769-2.705.113-.541.73-.618,1.533-.205,2.35.269.532.704.89,1.309.97,1.167.155,2.194-.779,2.192-1.975Z" fill="#1a1a1a"/>
        <path d="m13.417,15.801c-.149-.077-.29-.12-.426-.133l-.152-.017c-.216-.024-.412-.039-.651-.045-.402.005-.803.03-1.201.064-.435.035-.794.323-.939.756-.091.274-.11.687.313,1.098.352.341.705.594,1.08.772.029.014.059.025.089.035l.257.082c.07.022.142.033.214.033.077,0,.154-.013.228-.038l.345-.121c.412-.189.79-.465,1.129-.819.235-.247.34-.574.287-.897-.053-.325-.26-.605-.573-.77Z" fill="#1a1a1a"/>
      </g>
    </g>
  </g>
</svg>